<svg width="1366" height="699" viewBox="0 0 1366 699" fill="none" xmlns="http://www.w3.org/2000/svg">
<path d="M1259.59 67.471C1259.59 73.1244 1250.87 77.5772 1249.47 82.7803C1248.02 88.1836 1253.34 96.3886 1250.59 101.116C1247.82 105.919 1238.04 105.394 1234.15 109.296C1230.25 113.199 1230.77 122.98 1225.97 125.756C1221.25 128.483 1213.05 123.18 1207.65 124.631C1202.43 126.032 1198 134.762 1192.35 134.762C1186.71 134.762 1182.26 126.032 1177.06 124.631C1171.66 123.18 1163.46 128.508 1158.74 125.756C1153.94 122.98 1154.46 113.199 1150.56 109.296C1146.66 105.394 1136.89 105.919 1134.12 101.116C1131.39 96.3886 1136.69 88.1836 1135.24 82.7803C1133.84 77.5521 1125.12 73.1244 1125.12 67.471C1125.12 61.8176 1133.84 57.3649 1135.24 52.1617C1136.69 46.7585 1131.37 38.5535 1134.12 33.8256C1136.89 29.0227 1146.66 29.548 1150.56 25.6457C1154.46 21.7433 1153.94 11.9624 1158.74 9.18569C1163.46 6.45904 1171.66 11.7623 1177.06 10.3114C1182.28 8.91053 1186.71 0.180237 1192.35 0.180237C1198 0.180237 1202.45 8.91053 1207.65 10.3114C1213.05 11.7623 1221.25 6.43402 1225.97 9.18569C1230.77 11.9624 1230.25 21.7433 1234.15 25.6457C1238.04 29.548 1247.82 29.0227 1250.59 33.8256C1253.32 38.5535 1248.02 46.7585 1249.47 52.1617C1250.87 57.3649 1259.59 61.7926 1259.59 67.471Z" fill="#FFBB35"/>
<path d="M1192.35 124.681C1223.92 124.681 1249.52 99.0671 1249.52 67.471C1249.52 35.875 1223.92 10.2614 1192.35 10.2614C1160.78 10.2614 1135.19 35.875 1135.19 67.471C1135.19 99.0671 1160.78 124.681 1192.35 124.681Z" fill="#FFD637"/>
<path d="M1225.87 21.1179C1232.7 30.5486 1236.74 42.1307 1236.74 54.6633C1236.74 86.2574 1211.15 111.873 1179.58 111.873C1167.06 111.873 1155.49 107.82 1146.06 100.991C1156.46 115.325 1173.31 124.656 1192.35 124.656C1223.92 124.656 1249.52 99.0402 1249.52 67.446C1249.52 48.4095 1240.22 31.5242 1225.87 21.1179Z" fill="#FFBB35"/>
<path d="M625.147 429.566C625.147 429.566 659.44 367.078 718.878 413.306C718.878 413.306 790.013 301.213 896.816 385.264C896.816 385.264 950.081 364.001 962.378 418.884C962.378 418.884 974.351 368.254 1036.51 342.013C1098.65 315.772 1150.79 347.016 1150.79 347.016C1150.79 347.016 1145.49 288.655 1211.73 282.802C1211.73 282.802 1195.91 180.139 1306.08 150.171C1306.08 150.171 1287.11 59.3412 1372.94 30.1485V524.623H625.147V429.566Z" fill="white"/>
<path d="M1410.93 418.034C1410.93 418.034 1425.53 386.84 1396.96 376.183C1396.96 376.183 1406.21 357.697 1386.34 342.688C1386.34 342.688 1386.61 319.974 1372.89 307.567C1359.19 319.949 1359.44 342.688 1359.44 342.688C1339.57 357.697 1348.82 376.183 1348.82 376.183C1320.25 386.84 1334.85 418.034 1334.85 418.034C1299.58 446.976 1372.89 476.669 1372.89 476.669C1372.89 476.669 1446.2 446.976 1410.93 418.034Z" fill="#3B722F"/>
<path d="M1379.39 346.19C1379.39 346.19 1394.29 357.472 1390.49 377.834C1390.49 377.834 1411.93 392.018 1397.04 416.933C1397.04 416.933 1407.46 439.246 1384.69 457.182C1362.19 474.893 1329.75 446.501 1328.93 445.775C1340.02 463.311 1372.94 476.669 1372.94 476.669C1372.94 476.669 1446.23 446.951 1410.98 418.034C1410.98 418.034 1425.58 386.84 1397.01 376.183C1397.01 376.183 1406.26 357.697 1386.39 342.688C1386.39 342.688 1386.66 319.974 1372.94 307.567C1372.89 307.592 1383.76 326.003 1379.39 346.19Z" fill="#64A03D"/>
<path d="M996.546 449.152C996.546 449.152 1009.09 422.336 984.548 413.181C984.548 413.181 992.497 397.296 975.4 384.388C975.4 384.388 975.625 364.851 963.852 354.22C952.08 364.876 952.305 384.388 952.305 384.388C935.233 397.271 943.157 413.181 943.157 413.181C918.612 422.336 931.159 449.152 931.159 449.152C900.84 474.017 963.852 499.558 963.852 499.558C963.852 499.558 1026.84 474.042 996.546 449.152Z" fill="#3B722F"/>
<path d="M969.426 387.415C969.426 387.415 982.249 397.121 978.949 414.632C978.949 414.632 997.396 426.839 984.573 448.252C984.573 448.252 993.521 467.438 973.95 482.848C954.629 498.082 926.735 473.667 926.01 473.042C935.533 488.101 963.827 499.583 963.827 499.583C963.827 499.583 1026.81 474.043 996.521 449.177C996.521 449.177 1009.07 422.361 984.523 413.206C984.523 413.206 992.472 397.321 975.375 384.413C975.375 384.413 975.6 364.876 963.827 354.245C963.852 354.22 973.176 370.054 969.426 387.415Z" fill="#275B1E"/>
<path d="M564.836 421.933C564.836 421.933 577.383 395.116 552.838 385.961C552.838 385.961 560.786 370.076 543.69 357.168C543.69 357.168 543.915 337.631 532.142 327C520.37 337.656 520.595 357.168 520.595 357.168C503.523 370.051 511.447 385.961 511.447 385.961C486.902 395.116 499.449 421.933 499.449 421.933C469.13 446.798 532.142 472.338 532.142 472.338C532.142 472.338 595.129 446.823 564.836 421.933Z" fill="#73AF4D"/>
<path d="M537.716 360.195C537.716 360.195 550.539 369.901 547.239 387.412C547.239 387.412 565.685 399.619 552.863 421.032C552.863 421.032 561.811 440.219 542.24 455.628C522.919 470.862 495.025 446.447 494.3 445.822C503.823 460.881 532.117 472.363 532.117 472.363C532.117 472.363 595.104 446.823 564.811 421.958C564.811 421.958 577.358 395.141 552.813 385.986C552.813 385.986 560.761 370.101 543.665 357.193C543.665 357.193 543.89 337.656 532.117 327.025C532.142 327 541.465 342.835 537.716 360.195Z" fill="#64A03D"/>
<path d="M348.061 463.791C348.061 463.791 357.409 443.812 339.122 436.991C339.122 436.991 345.044 425.156 332.306 415.539C332.306 415.539 332.474 400.984 323.703 393.063C314.932 401.002 315.1 415.539 315.1 415.539C302.381 425.137 308.284 436.991 308.284 436.991C289.997 443.812 299.346 463.791 299.346 463.791C276.757 482.316 323.703 501.344 323.703 501.344C323.703 501.344 370.631 482.335 348.061 463.791Z" fill="#73AF4D"/>
<path d="M327.856 417.794C327.856 417.794 337.409 425.026 334.951 438.072C334.951 438.072 348.694 447.166 339.141 463.12C339.141 463.12 345.807 477.414 331.226 488.895C316.832 500.245 296.049 482.055 295.509 481.589C302.604 492.809 323.684 501.363 323.684 501.363C323.684 501.363 370.612 482.335 348.042 463.809C348.042 463.809 357.39 443.83 339.103 437.009C339.103 437.009 345.025 425.175 332.288 415.558C332.288 415.558 332.455 401.002 323.684 393.082C323.703 393.063 330.649 404.86 327.856 417.794Z" fill="#64A03D"/>
<path d="M165.061 513.728C165.061 513.728 174.409 493.749 156.122 486.928C156.122 486.928 162.044 475.093 149.307 465.476C149.307 465.476 149.474 450.921 140.703 443C131.932 450.939 132.1 465.476 132.1 465.476C119.381 475.074 125.284 486.928 125.284 486.928C106.997 493.749 116.346 513.728 116.346 513.728C93.7572 532.253 140.703 551.282 140.703 551.282C140.703 551.282 187.631 532.272 165.061 513.728Z" fill="#73AF4D"/>
<path d="M144.856 467.731C144.856 467.731 154.409 474.963 151.951 488.009C151.951 488.009 165.694 497.103 156.141 513.057C156.141 513.057 162.808 527.351 148.227 538.832C133.832 550.182 113.05 531.992 112.51 531.526C119.605 542.746 140.685 551.3 140.685 551.3C140.685 551.3 187.612 532.272 165.042 513.746C165.042 513.746 174.39 493.767 156.104 486.946C156.104 486.946 162.025 475.112 149.288 465.495C149.288 465.495 149.456 450.939 140.685 443.019C140.703 443 147.649 454.797 144.856 467.731Z" fill="#64A03D"/>
<path d="M1064.36 472.367C1064.36 472.367 1073.86 452.054 1055.26 445.1C1055.26 445.1 1061.28 433.068 1048.34 423.287C1048.34 423.287 1048.51 408.478 1039.59 400.423C1030.66 408.503 1030.84 423.287 1030.84 423.287C1017.89 433.043 1023.92 445.1 1023.92 445.1C1005.32 452.029 1014.82 472.367 1014.82 472.367C991.847 491.228 1039.59 510.565 1039.59 510.565C1039.59 510.565 1087.33 491.228 1064.36 472.367Z" fill="#73AF4D"/>
<path d="M1043.81 425.588C1043.81 425.588 1053.51 432.943 1051.03 446.201C1051.03 446.201 1065.01 455.431 1055.31 471.666C1055.31 471.666 1062.11 486.2 1047.26 497.882C1032.61 509.414 1011.49 490.928 1010.94 490.452C1018.17 501.859 1039.61 510.565 1039.61 510.565C1039.61 510.565 1087.35 491.228 1064.38 472.367C1064.38 472.367 1073.88 452.054 1055.28 445.1C1055.28 445.1 1061.31 433.068 1048.36 423.287C1048.36 423.287 1048.54 408.478 1039.61 400.423C1039.59 400.448 1046.66 412.43 1043.81 425.588Z" fill="#64A03D"/>
<path d="M874.746 435.744C874.746 435.744 884.244 415.407 865.648 408.477C865.648 408.477 871.672 396.445 858.724 386.664C858.724 386.664 858.899 371.855 849.976 363.8C841.053 371.88 841.228 386.664 841.228 386.664C828.28 396.445 834.304 408.477 834.304 408.477C815.708 415.407 825.206 435.744 825.206 435.744C802.236 454.58 849.976 473.942 849.976 473.942C849.976 473.942 897.716 454.58 874.746 435.744Z" fill="#73AF4D"/>
<path d="M854.2 388.941C854.2 388.941 863.898 396.295 861.424 409.553C861.424 409.553 875.396 418.784 865.698 435.019C865.698 435.019 872.471 449.553 857.649 461.235C843.002 472.767 821.882 454.281 821.332 453.805C828.555 465.212 850.001 473.917 850.001 473.917C850.001 473.917 897.741 454.581 874.771 435.719C874.771 435.719 884.269 415.382 865.673 408.453C865.673 408.453 871.697 396.42 858.749 386.64C858.749 386.64 858.924 371.831 850.001 363.776C849.976 363.801 857.05 375.783 854.2 388.941Z" fill="#64A03D"/>
<path d="M642.568 416.658C642.568 416.658 652.066 396.32 633.47 389.391C633.47 389.391 639.494 377.359 626.547 367.578C626.547 367.578 626.721 352.769 617.798 344.714C608.875 352.769 609.05 367.578 609.05 367.578C596.103 377.334 602.126 389.391 602.126 389.391C583.53 396.32 593.028 416.658 593.028 416.658C570.058 435.494 617.798 454.856 617.798 454.856C617.798 454.856 665.539 435.519 642.568 416.658Z" fill="#3B722F"/>
<path d="M622.047 369.879C622.047 369.879 631.746 377.234 629.271 390.492C629.271 390.492 643.243 399.723 633.545 415.957C633.545 415.957 640.319 430.491 625.497 442.173C610.85 453.705 589.729 435.219 589.179 434.744C596.403 446.151 617.848 454.856 617.848 454.856C617.848 454.856 665.589 435.519 642.618 416.658C642.618 416.658 652.116 396.32 633.52 389.391C633.52 389.391 639.544 377.359 626.597 367.578C626.597 367.578 626.772 352.769 617.848 344.714C617.798 344.739 624.872 356.721 622.047 369.879Z" fill="#275B1E"/>
<path d="M450.989 455.944C450.989 455.944 460.487 435.606 441.891 428.677C441.891 428.677 447.915 416.645 434.968 406.864C434.968 406.864 435.143 392.055 426.219 384C417.296 392.055 417.471 406.864 417.471 406.864C404.524 416.62 410.548 428.677 410.548 428.677C391.951 435.606 401.449 455.944 401.449 455.944C378.479 474.78 426.219 494.142 426.219 494.142C426.219 494.142 473.96 474.805 450.989 455.944Z" fill="#3B722F"/>
<path d="M430.469 409.165C430.469 409.165 440.167 416.52 437.692 429.778C437.692 429.778 451.664 439.008 441.966 455.243C441.966 455.243 448.74 469.777 433.918 481.459C419.271 492.991 398.15 474.505 397.6 474.03C404.824 485.437 426.269 494.142 426.269 494.142C426.269 494.142 474.01 474.805 451.039 455.944C451.039 455.944 460.537 435.606 441.941 428.677C441.941 428.677 447.965 416.645 435.018 406.864C435.018 406.864 435.193 392.055 426.269 384C426.219 384.025 433.293 396.007 430.469 409.165Z" fill="#275B1E"/>
<path d="M264.967 487.158C264.967 487.158 278.887 457.351 251.632 447.195C251.632 447.195 260.461 429.56 241.485 415.225C241.485 415.225 241.741 393.52 228.663 381.715C215.585 393.52 215.841 415.225 215.841 415.225C196.865 429.523 205.694 447.195 205.694 447.195C178.439 457.351 192.36 487.158 192.36 487.158C158.694 514.765 228.663 543.142 228.663 543.142C228.663 543.142 298.633 514.801 264.967 487.158Z" fill="#3B722F"/>
<path d="M234.891 418.598C234.891 418.598 249.104 429.377 245.478 448.808C245.478 448.808 265.956 462.337 251.742 486.131C251.742 486.131 261.67 507.432 239.946 524.554C218.479 541.455 187.524 514.361 186.718 513.665C197.305 530.383 228.736 543.142 228.736 543.142C228.736 543.142 298.706 514.801 265.04 487.158C265.04 487.158 278.961 457.351 251.705 447.195C251.705 447.195 260.534 429.56 241.558 415.225C241.558 415.225 241.814 393.52 228.736 381.715C228.663 381.752 239.03 399.313 234.891 418.598Z" fill="#275B1E"/>
<path d="M1174.33 472.367C1174.33 472.367 1183.83 452.054 1165.23 445.1C1165.23 445.1 1171.26 433.068 1158.31 423.287C1158.31 423.287 1158.49 408.478 1149.56 400.423C1140.64 408.503 1140.81 423.287 1140.81 423.287C1127.87 433.043 1133.89 445.1 1133.89 445.1C1115.29 452.029 1124.79 472.367 1124.79 472.367C1101.82 491.228 1149.56 510.565 1149.56 510.565C1149.56 510.565 1197.3 491.228 1174.33 472.367Z" fill="#3B722F"/>
<path d="M1153.81 425.588C1153.81 425.588 1163.51 432.943 1161.04 446.201C1161.04 446.201 1175.01 455.431 1165.28 471.666C1165.28 471.666 1172.08 486.2 1157.24 497.882C1142.59 509.414 1121.47 490.928 1120.92 490.452C1128.14 501.859 1149.56 510.565 1149.56 510.565C1149.56 510.565 1197.3 491.228 1174.33 472.367C1174.33 472.367 1183.83 452.054 1165.23 445.1C1165.23 445.1 1171.26 433.068 1158.31 423.287C1158.31 423.287 1158.49 408.478 1149.56 400.423C1149.56 400.448 1156.64 412.43 1153.81 425.588Z" fill="#275B1E"/>
<path d="M1290.81 450.778C1290.81 450.778 1303.81 423.012 1278.39 413.531C1278.39 413.531 1286.61 397.071 1268.91 383.713C1268.91 383.713 1269.16 363.501 1256.97 352.469C1244.77 363.501 1244.99 383.713 1244.99 383.713C1227.3 397.071 1235.52 413.531 1235.52 413.531C1210.1 423.012 1223.1 450.778 1223.1 450.778C1191.7 476.544 1256.94 502.985 1256.94 502.985C1256.94 502.985 1322.2 476.544 1290.81 450.778Z" fill="#73AF4D"/>
<path d="M1262.74 386.84C1262.74 386.84 1276.01 396.871 1272.61 415.007C1272.61 415.007 1291.71 427.639 1278.44 449.828C1278.44 449.828 1287.71 469.69 1267.44 485.65C1247.42 501.409 1218.55 476.144 1217.8 475.493C1227.67 491.103 1256.97 502.985 1256.97 502.985C1256.97 502.985 1322.2 476.544 1290.81 450.778C1290.81 450.778 1303.81 423.012 1278.39 413.531C1278.39 413.531 1286.61 397.071 1268.91 383.713C1268.91 383.713 1269.16 363.501 1256.97 352.469C1256.97 352.469 1266.64 368.879 1262.74 386.84Z" fill="#64A03D"/>
<path d="M845.726 454.581C563.309 367.478 435.06 513.667 433.735 515.192C413.089 540.558 407.016 563.072 426.012 579.632C493.498 638.417 509.745 700.18 318.534 775H1372.89V426.914C1372.89 426.914 1129.62 542.134 845.726 454.581Z" fill="#8CBF62"/>
<path d="M604.726 574.654C502.272 449.628 648.342 427.764 648.442 427.739C502.797 436.52 -1.52522 578.531 -2.50002 579.657C-23.1458 605.022 -32.4961 676.94 -13.5 693.5C-13.5 735.343 9.5 699.5 85.6998 699.5C89.399 702.227 462.079 701.03 466.004 703.807C544.737 759.165 613.474 761.017 685.959 764.769C758.444 768.521 893.417 763.518 932.709 759.766C972.001 756.014 1079.6 651.975 1079.6 651.975C1079.6 651.975 707.205 699.729 604.726 574.654Z" fill="#73AF4D"/>
<path d="M318.534 775H1372.89V703.782C1372.89 703.782 1232.5 597.142 994.846 672.188C757.194 747.233 549.562 707.234 460.28 617.154C491.148 664.958 469.578 715.914 318.534 775Z" fill="#73AF4D"/>
<path d="M1079.6 651.975C1079.88 652 1286.14 633.514 1202.1 703.482C1135.52 758.94 905.915 775.025 905.915 775.025H1372.89V703.807C1372.89 703.782 1265.52 622.232 1079.6 651.975Z" fill="#8CBF62"/>
<path d="M1295.78 623.383C1295.78 631.838 1237.47 638.717 1165.54 638.717C1093.6 638.717 1035.29 631.863 1035.29 623.383C1035.29 614.928 1093.6 608.049 1165.54 608.049C1237.47 608.049 1295.78 614.903 1295.78 623.383Z" fill="#73AF4D"/>
<path d="M705.406 695.151C716.477 695.151 725.452 693.561 725.452 691.599C725.452 689.638 716.477 688.047 705.406 688.047C694.335 688.047 685.36 689.638 685.36 691.599C685.36 693.561 694.335 695.151 705.406 695.151Z" fill="#64A03D"/>
<path d="M1039.59 570.376C1039.59 573.078 1027.26 575.254 1012.07 575.254C996.871 575.254 984.548 573.078 984.548 570.376C984.548 567.674 996.871 565.498 1012.07 565.498C1027.26 565.498 1039.59 567.674 1039.59 570.376Z" fill="#73AF4D"/>
<path d="M1003.94 554.741C1003.94 556.693 994.971 558.294 983.899 558.294C972.826 558.294 963.853 556.693 963.853 554.741C963.853 552.79 972.826 551.189 983.899 551.189C994.971 551.189 1003.94 552.79 1003.94 554.741Z" fill="#73AF4D"/>
<path d="M967.802 581.758C967.802 583.709 958.829 585.31 947.756 585.31C936.683 585.31 927.71 583.709 927.71 581.758C927.71 579.807 936.683 578.206 947.756 578.206C958.829 578.206 967.802 579.782 967.802 581.758Z" fill="#73AF4D"/>
<path d="M706.848 499.474H695.085V726.395H706.848V499.474Z" fill="#275B1E"/>
<path d="M770.664 414.926C784.427 398.817 792.759 377.92 792.759 355.061C792.759 304.163 751.529 262.88 700.653 262.88C649.776 262.88 608.546 304.144 608.546 355.061C608.546 377.92 616.878 398.817 630.641 414.926H630.602C630.602 414.926 630.661 414.985 630.759 415.063C632.622 417.221 634.562 419.301 636.621 421.283C644.463 430.446 657.168 448.616 657.168 470.199H700.653H744.137C744.137 448.616 756.861 430.427 764.684 421.283C766.723 419.301 768.684 417.221 770.546 415.063C770.644 414.985 770.703 414.926 770.703 414.926H770.664Z" fill="#FFD637"/>
<path d="M645.738 396.953L642.601 392.322L658.167 368.678L662.598 367.148L663.755 361.458L666.441 358.966V356.533L655.285 352.589L654.031 350.018L650.365 348.821L644.385 344.878H638.621L633.7 355.277L637.837 362.419L642.365 365.598L640.934 381.216L638.915 393.44L643.522 396.953H645.738Z" fill="white"/>
<path d="M637.346 347.546L633.994 346.957L633.7 342.915L630.073 342.66L631.484 339.246L629.308 338.991L627.446 341.365L623.662 338.088L624.681 333.536L632.073 332.751L634.955 336.107L635.856 331.339L638.484 329.161L640.091 325.06L646.189 319.84L649.6 320.096L646.698 317.663L644.385 317.349L643.561 316.112L646.443 315.229L648.698 315.602L651.835 314.072V311.364L647.855 308.597L646.385 303.359L644.071 306.361L642.267 302.809L637.758 300.513L636.503 305.458L638.17 308.342L636.17 310.52L636.7 314.19L634.19 311.933L632.778 309.245L627.132 306.989L625.524 303.359L629.171 298.512L631.935 297.237L634.7 293.881L634.053 289.447L630.583 292.665L626.544 285.032L624.172 292.272L619.604 291.841L622.054 288.996L620.388 285.032L619.604 281.108L613.506 281.952L610.428 279.303L606.585 278.793L604.782 283.796L610.624 286.308L610.565 289.643L602.86 287.838L599.39 290.487L583.843 285.601L579.04 292.017L581.157 295.628L579.04 301.082L580.118 304.673L585.196 307.381L588.215 305.458L589.627 302.436L596.822 303.653L599.9 309.755L604.527 311.933L607.605 317.407L606.389 324.216L610.565 330.77L615.173 333.85L618.643 339.246L621.799 341.503L622.878 343.111L627.308 343.563L629.759 345.8L631.563 346.192L633.7 348.762L636.366 349.645L637.346 347.546Z" fill="white"/>
<path d="M630.916 280.205L629.132 286.131L631.249 288.486L635.543 287.917C635.543 287.917 638.876 291.193 639.013 291.233C639.15 291.272 639.307 295.137 639.307 295.137L645.189 302.181L646.051 299.768L643.738 295.333L646.816 295.961L648.306 294.607L643.581 290.84L642.914 287.269L638.189 282.972L637.621 280.617L630.916 280.205Z" fill="white"/>
<path d="M641.444 267.059L640.405 270.434L643.365 274.927L648.286 275.889L652.482 283.678L653.129 295.49L658.383 304.242L665.069 295.235L673.93 288.819V280.971L676.891 274.81L674.95 267.059H641.444Z" fill="white"/>
<path d="M695.143 327.042L682.341 330.711L679.93 336.401L676.263 341.699L679.165 349.645L685.713 351.235L692.457 350.018L695.143 353.158L694.281 356.434L697.261 359.476L694.575 365.696L700.535 377.782L708.142 375.33L711.612 366.755L716.239 361.987L714.886 354.747L722.493 345.309H716.533L711.514 337.637L711.318 332.339L702.378 330.613L701.025 332.241L695.81 330.613L695.143 327.042Z" fill="white"/>
<path d="M717.062 364.44V366.598L716.572 369.169L718.121 370.934L719.376 369.169L721.14 362.615L720.474 360.829L717.062 364.44Z" fill="white"/>
<path d="M756.293 349.155L748.98 338.912L744.353 342.287L741.471 346.722L735.786 341.424L729.237 335.636H722.493L728.081 339.874L719.513 343.916L711.514 337.657L711.318 332.359L712.828 328.474L705.711 327.454C705.711 327.454 699.672 323.863 699.378 323.667C699.084 323.47 696.908 320.9 696.908 320.9L689.791 323.215L686.909 326.551L682.537 327.454L681.184 323.784C681.184 323.784 684.262 321.273 684.517 321.351C684.772 321.41 687.536 321.489 687.536 321.489L686.125 317.898L684.968 316.426L690.752 314.052L692.732 310.638L698.437 311.482L698.574 308.97L694.281 307.047L690.36 305.321L690.869 301.2L696.771 296.57L700.555 289.624L702.358 286.661L709.103 287.23L713.788 291.919L716.945 292.057L724.963 291.409L731.766 287.112L737.158 280.362H741.844C741.844 280.362 745.686 276.575 746.137 276.379C746.588 276.183 751.784 273.24 751.784 273.24L756.724 270.866L761.41 272.73L763.978 275.614L760.567 279.342L764.939 281.069L772.193 281.461L773.212 285.071L777.055 285.817L780.839 283.384L785.27 283.443L790.21 285.071L793.034 287.426L797.602 287.563L802.993 288.662L807.169 290.919L811.796 294.254L812.953 296.197L809.62 299.336L807.169 297.865L804.66 300.239L803.052 302.495L798.817 304.104L795.406 303.849L788.152 303.908L782.309 305.635L778.722 309.304L781.486 312.836L778.349 320.802L781.682 318.035L784.388 317.898L782.211 320.017L782.662 321.881L781.251 324.393C781.251 324.393 781.055 326.708 781.055 327.159C781.055 327.611 777.977 329.926 777.977 329.926L775.095 331.025L773.487 333.203L771.82 335.577L771.566 333.889L772.213 330.24L776.585 328.121L779.349 325.864L780.251 321.822L775.428 322.47L772.997 324.079L772.683 326.904L771.134 328.768L770.291 327.297L769.527 325.119L767.409 324.922L766.449 327.297L767.801 331.476L767.664 336.911L762.018 338.873L758.802 339.187L757.705 341.561L759.822 344.191L759.567 347.409L756.293 349.155Z" fill="white"/>
<path d="M766.703 366.755L763.037 368.678L761.567 370.542L763.292 373.505L763.233 377.233L765.037 378.509L774.016 375.232L779.996 379.804L781.78 381.668L786.74 379.666L787.309 376.389L789.308 374.211L788.858 369.777L785.132 366.755L781.858 360.516L780.76 361.418L780.192 365.087L777.231 363.027L778.251 361.418L773.193 361.163L772.409 363.792L771.134 362.576L768.429 364.891L767.86 366.559L766.703 366.755Z" fill="white"/>
<path d="M801.856 377.508V380.824L798.523 385.396L796.837 387.083L797.366 388.731L801.856 385.258L805.326 380.726L804.64 378.901L801.856 377.508Z" fill="white"/>
<path d="M748.98 347.35L753.274 355.277L757.254 357.18L758.979 358.966L768.037 360.516L774.447 358.456L767.703 358.259C767.703 358.259 761.92 358.122 761.547 358.004C761.155 357.867 757.057 354.472 757.057 354.472L748.98 347.35Z" fill="white"/>
<path d="M759.194 352.746L764.704 349.155L766.311 350.018L765.351 350.94L766.311 352.746L764.39 356.277L760.214 355.277L759.194 352.746Z" fill="white"/>
<path d="M769.84 351.98L766.762 353.943L766.311 356.886H767.605L767.821 356.022L769.331 356.886L769.84 356.415L768.762 354.747L769.84 351.98Z" fill="white"/>
<path d="M773.761 353.295L776.291 354.433L776.487 355.571L778.761 354.747L783.976 356.415L785.035 358.593L787.956 359.476L786.093 360.104L783.427 358.534L781.957 359.476L779.153 359.162L777.192 356.513L775.016 356.121L774.016 354.433L772.899 353.943L773.761 353.295Z" fill="white"/>
<path d="M771.448 351.686L770.683 354.433L772.056 355.434L772.565 352.236L771.448 351.686Z" fill="white"/>
<path d="M767.625 340.894L766.311 343.112L766.978 345.309L765.135 348.095L765.547 348.468L768.076 346.192L768.586 348.017L767.507 349.822L769.487 348.88L770.33 349.822L771.84 348.507L769.84 344.014L768.488 343.465L768.86 341.463L767.625 340.894Z" fill="white"/>
<path opacity="0.4" d="M792.759 355.081C792.759 304.183 751.529 262.899 700.652 262.899C697.633 262.899 694.653 263.056 691.712 263.331C738.373 267.824 774.859 307.185 774.859 355.061C774.859 377.92 766.527 398.817 752.764 414.926H752.803C752.803 414.926 752.744 414.985 752.646 415.063C750.784 417.221 748.843 419.301 746.784 421.283C738.942 430.446 726.238 448.616 726.238 470.199H726.257V481.089C726.257 481.756 726.238 482.423 726.198 483.071C728.963 483.326 731.159 485.622 731.159 488.467C731.159 491.469 728.728 493.902 725.728 493.902H724.336C723.218 497.532 721.63 500.946 719.67 504.105C720.983 505.106 721.866 506.656 721.866 508.441C721.866 511.443 719.435 513.876 716.435 513.876H711.337C705.848 518.644 699.162 522.039 691.771 523.609C694.653 524.217 697.653 524.57 700.711 524.57C711.632 524.57 721.591 520.528 729.218 513.896H734.315C737.315 513.896 739.746 511.463 739.746 508.461C739.746 506.675 738.883 505.106 737.55 504.124C739.53 500.965 741.099 497.551 742.216 493.921H743.608C746.608 493.921 749.039 491.488 749.039 488.486C749.039 485.641 746.863 483.345 744.079 483.09C744.098 482.423 744.137 481.776 744.137 481.109V470.219H744.118C744.118 448.635 756.842 430.446 764.664 421.303C766.703 419.321 768.664 417.241 770.526 415.083C770.624 415.004 770.683 414.945 770.683 414.945H770.644C784.427 398.817 792.759 377.939 792.759 355.081Z" fill="#F6921E"/>
<path d="M700.613 235.272C699.378 235.272 698.378 234.272 698.378 233.055V186.042C698.378 184.806 699.378 183.825 700.613 183.825C701.848 183.825 702.848 184.826 702.848 186.042V233.036C702.848 234.272 701.848 235.272 700.613 235.272Z" fill="#FFD637"/>
<path d="M640.777 251.323C640.013 251.323 639.268 250.93 638.856 250.204L615.388 209.51C614.761 208.45 615.133 207.077 616.212 206.468C617.27 205.84 618.643 206.213 619.251 207.273L642.718 247.967C643.346 249.047 642.973 250.401 641.915 251.028C641.542 251.225 641.15 251.323 640.777 251.323Z" fill="#FFD637"/>
<path d="M596.998 295.196C596.626 295.196 596.234 295.098 595.881 294.882L555.219 271.395C554.141 270.787 553.788 269.414 554.396 268.354C555.003 267.294 556.376 266.922 557.435 267.53L598.096 291.017C599.175 291.625 599.527 292.998 598.92 294.058C598.508 294.784 597.763 295.196 596.998 295.196Z" fill="#FFD637"/>
<path d="M580.981 355.081H534.026C532.79 355.081 531.791 354.08 531.791 352.844C531.791 351.608 532.79 350.607 534.026 350.607H580.981C582.216 350.607 583.216 351.608 583.216 352.844C583.216 354.08 582.216 355.081 580.981 355.081Z" fill="#FFD637"/>
<path d="M556.376 438.452C555.611 438.452 554.847 438.059 554.454 437.333C553.827 436.274 554.2 434.9 555.278 434.292L595.94 410.805C596.998 410.177 598.371 410.55 598.979 411.629C599.586 412.689 599.233 414.062 598.155 414.671L557.493 438.177C557.14 438.354 556.748 438.452 556.376 438.452Z" fill="#FFD637"/>
<path d="M617.369 499.474C616.996 499.474 616.604 499.376 616.251 499.18C615.173 498.552 614.82 497.198 615.428 496.139L638.915 455.444C639.523 454.384 640.875 454.012 641.954 454.62C643.032 455.248 643.385 456.602 642.777 457.661L619.29 498.356C618.898 499.082 618.133 499.474 617.369 499.474Z" fill="#FFD637"/>
<path d="M784.015 499.455C783.231 499.455 782.486 499.062 782.074 498.336L758.606 457.641C757.979 456.582 758.351 455.208 759.43 454.6C760.508 453.972 761.861 454.345 762.469 455.405L785.936 496.099C786.564 497.159 786.191 498.532 785.132 499.141C784.76 499.337 784.388 499.455 784.015 499.455Z" fill="#FFD637"/>
<path d="M844.968 438.393C844.576 438.393 844.204 438.295 843.851 438.099L803.189 414.612C802.131 414.003 801.758 412.63 802.366 411.57C802.974 410.511 804.346 410.138 805.405 410.746L846.066 434.233C847.125 434.861 847.498 436.215 846.89 437.274C846.498 437.981 845.753 438.393 844.968 438.393Z" fill="#FFD637"/>
<path d="M867.299 355.002H820.344C819.109 355.002 818.109 354.001 818.109 352.765C818.109 351.529 819.109 350.548 820.344 350.548H867.299C868.534 350.548 869.534 351.549 869.534 352.765C869.514 354.001 868.515 355.002 867.299 355.002Z" fill="#FFD637"/>
<path d="M804.287 295.118C803.522 295.118 802.777 294.725 802.366 293.999C801.738 292.94 802.111 291.566 803.189 290.958L843.851 267.471C844.91 266.843 846.282 267.216 846.89 268.295C847.517 269.355 847.145 270.728 846.066 271.337L805.405 294.843C805.052 295.02 804.66 295.118 804.287 295.118Z" fill="#FFD637"/>
<path d="M760.469 251.303C760.096 251.303 759.704 251.205 759.351 250.989C758.293 250.381 757.92 249.007 758.528 247.948L781.996 207.233C782.623 206.174 783.976 205.801 785.035 206.409C786.093 207.018 786.466 208.391 785.838 209.451L762.37 250.145C761.978 250.891 761.233 251.303 760.469 251.303Z" fill="#FFD637"/>
<path d="M700.613 235.272C699.378 235.272 698.378 234.272 698.378 233.055V186.042C698.378 184.806 699.378 183.825 700.613 183.825C701.848 183.825 702.848 184.826 702.848 186.042V233.036C702.848 234.272 701.848 235.272 700.613 235.272Z" fill="#FFD637"/>
<path d="M719.944 474.849C712.671 454.306 710.73 436.431 711.808 422.264C707.75 423.167 703.221 423.952 698.202 424.579C695.006 424.972 692.026 425.227 689.262 425.364C691.105 446.359 688.36 469.964 687.831 474.222L681.675 473.456C683.4 459.662 684.36 440.904 682.968 425.443C664.167 424.933 657.462 417.712 655.07 412.807C652.188 406.901 653.462 399.719 658.246 394.951C662.912 390.301 669.558 389.281 675.577 392.243C683.008 395.913 686.792 406.626 688.556 419.164C691.36 419.066 694.32 418.811 697.437 418.438C703.064 417.732 708.103 416.809 712.553 415.73C713.749 407.96 715.906 401.603 718.533 396.835C722.179 390.222 726.944 386.063 732.335 384.826C737.746 383.59 742.765 384.905 745.765 388.358C748.568 391.576 749.157 396.05 747.412 400.602C745.706 405.076 739.609 414.592 718.239 420.675C716.866 434.272 718.474 452.108 725.787 472.809L719.944 474.849ZM668.637 396.756C666.421 396.756 664.324 397.62 662.638 399.327C660.226 401.74 658.677 405.998 660.657 410.079C663.304 415.514 671.048 418.673 682.263 419.164C680.733 408.49 677.812 400.249 672.852 397.816C671.46 397.09 670.029 396.756 668.637 396.756ZM736.276 390.536C735.472 390.536 734.609 390.634 733.727 390.831C730.159 391.655 726.708 394.833 723.983 399.778C722.042 403.329 720.356 408.058 719.239 413.827C732.747 409.471 739.668 403.486 741.628 398.346C742.55 395.971 742.353 393.852 741.079 392.381C740.02 391.164 738.315 390.536 736.276 390.536Z" fill="#275B1E"/>
<path d="M700.711 524.59C676.714 524.59 657.246 505.125 657.246 481.089V470.199H744.177V481.089C744.157 505.125 724.708 524.59 700.711 524.59Z" fill="#275B1E"/>
<path d="M743.628 493.921H657.697C654.697 493.921 652.266 491.488 652.266 488.486C652.266 485.484 654.697 483.051 657.697 483.051H743.628C746.627 483.051 749.058 485.484 749.058 488.486C749.058 491.488 746.627 493.921 743.628 493.921Z" fill="#3B722F"/>
<path d="M734.315 513.916H667.009C664.01 513.916 661.579 511.483 661.579 508.48C661.579 505.478 664.01 503.045 667.009 503.045H734.315C737.315 503.045 739.746 505.478 739.746 508.48C739.746 511.483 737.315 513.916 734.315 513.916Z" fill="#3B722F"/>
<path opacity="0.5" d="M744.118 483.09C744.137 482.423 744.177 481.776 744.177 481.109V470.219H744.157H726.296V481.109C726.296 481.776 726.277 482.443 726.238 483.09C729.002 483.345 731.198 485.641 731.198 488.486C731.198 491.488 728.767 493.921 725.767 493.921H724.375C723.258 497.551 721.67 500.965 719.709 504.124C721.023 505.125 721.905 506.675 721.905 508.461C721.905 511.463 719.474 513.896 716.474 513.896H711.377C705.887 518.664 699.202 522.058 691.81 523.628C692.457 523.765 693.104 523.883 693.751 523.981C694.594 524.119 695.418 524.236 696.28 524.334C696.633 524.374 697.006 524.393 697.359 524.433C698.476 524.511 699.613 524.59 700.751 524.59C711.671 524.59 721.63 520.548 729.257 513.916H734.354C737.354 513.916 739.785 511.482 739.785 508.48C739.785 506.695 738.922 505.125 737.589 504.144C739.569 500.985 741.138 497.571 742.255 493.941H743.647C746.647 493.941 749.078 491.508 749.078 488.506C749.058 485.641 746.882 483.345 744.118 483.09Z" fill="#275B1E"/>
<path d="M748.451 583.709H700.966V595.482H748.451V583.709Z" fill="#275B1E"/>
<path d="M820.501 589.929C820.501 611.552 802.974 629.093 781.368 629.093C759.763 629.093 742.236 611.552 742.236 589.929C742.236 568.306 759.763 550.765 781.368 550.765C802.974 550.765 820.501 568.306 820.501 589.929Z" fill="#3B722F"/>
<path d="M815.854 589.929C815.854 609.001 800.405 624.443 781.368 624.443C762.331 624.443 746.882 608.981 746.882 589.929C746.882 570.857 762.331 555.415 781.368 555.415C800.405 555.415 815.854 570.876 815.854 589.929Z" fill="#275B1E"/>
<path d="M777.506 569.621H799.033L781.525 587.143H794.425L766.39 615.201L778.467 593.461H770.017L777.506 569.621Z" fill="#FFD637"/>
<path d="M700.966 583.709H653.482V595.482H700.966V583.709Z" fill="#275B1E"/>
<path d="M581.432 589.929C581.432 611.552 598.959 629.093 620.564 629.093C642.169 629.093 659.697 611.552 659.697 589.929C659.697 568.306 642.169 550.765 620.564 550.765C598.959 550.765 581.432 568.306 581.432 589.929Z" fill="#3B722F"/>
<path d="M586.078 589.929C586.078 609.001 601.527 624.443 620.564 624.443C639.601 624.443 655.05 608.981 655.05 589.929C655.05 570.857 639.601 555.415 620.564 555.415C601.527 555.415 586.078 570.876 586.078 589.929Z" fill="#275B1E"/>
<path d="M601.233 605.861C601.233 605.861 596.704 586.672 616.859 580.903C634.798 575.782 636.386 569.464 636.386 569.464C636.386 569.464 642.718 583.728 634.621 597.346C626.524 610.963 603.978 608.255 603.978 608.255C603.978 608.255 607.781 599.425 619.976 593.912C632.171 588.398 634.366 579.569 634.366 579.569C634.366 579.569 629.955 587.241 619.545 591.518C609.134 595.795 603.821 600.171 601.233 605.861Z" fill="#8CBF62"/>
<path d="M1073.15 666.384C1073.15 666.384 1202.1 647.948 1187.96 668.01C1173.78 688.047 1182.98 691.8 1230.25 683.895C1277.51 675.965 1306.33 652.826 1312.76 633.764C1319.18 614.678 1300.01 596.317 1248.34 584.66" stroke="white" stroke-miterlimit="10"/>
<path d="M1088.93 514.951C1088.93 523.775 1083.69 530.914 1077.25 530.914C1070.81 530.914 1065.56 523.775 1065.56 514.951C1065.56 506.128 1070.81 498.989 1077.25 498.989C1083.69 498.989 1088.93 506.157 1088.93 514.951Z" fill="#609E51"/>
<path d="M1092.99 514.951C1092.99 523.774 1087.75 530.914 1081.31 530.914C1074.84 530.914 1069.62 523.774 1069.62 514.951C1069.62 506.128 1074.87 498.989 1081.31 498.989C1087.77 498.989 1092.99 506.157 1092.99 514.951Z" fill="#48823B"/>
<path d="M1306.75 609.044H1112.51L1083.02 515.387L1091.31 512.775L1118.89 600.366H1306.75C1309.04 600.366 1311.16 599.292 1312.52 597.435C1313.88 595.577 1314.26 593.256 1313.57 591.05L1289.76 515.387L1298.05 512.775L1321.86 588.438C1323.4 593.314 1322.56 598.451 1319.51 602.572C1316.49 606.693 1311.85 609.044 1306.75 609.044Z" fill="#275B1E"/>
<path d="M1259.48 609.451H1047.61L1086.35 483.229H1298.22L1259.48 609.451Z" fill="#9CD88B"/>
<path d="M1054.05 604.691L1089.86 487.96H1291.82L1256 604.691H1054.05Z" fill="#275B1E"/>
<path d="M1108.68 474L1064.29 618.651" stroke="#9CD88B" stroke-miterlimit="10"/>
<path d="M1143.6 474L1099.2 618.651" stroke="#9CD88B" stroke-miterlimit="10"/>
<path d="M1178.51 474L1134.12 618.651" stroke="#9CD88B" stroke-miterlimit="10"/>
<path d="M1213.4 474L1169.03 618.651" stroke="#9CD88B" stroke-miterlimit="10"/>
<path d="M1248.32 474L1203.92 618.651" stroke="#9CD88B" stroke-miterlimit="10"/>
<path d="M1283.23 474L1238.83 618.651" stroke="#9CD88B" stroke-miterlimit="10"/>
<path d="M1068.08 521.627H1320.09" stroke="#9CD88B" stroke-miterlimit="10"/>
<path d="M1050.83 561.359H1302.86" stroke="#9CD88B" stroke-miterlimit="10"/>
<path d="M1047.61 609.451L1057.5 619.928H1269.37L1259.48 609.451H1047.61Z" fill="#275B1E"/>
<path d="M1269.37 619.928L1308.11 493.707L1298.22 483.229L1259.48 609.451L1269.37 619.928Z" fill="#3B722F"/>
<path d="M1305.85 514.951C1305.85 523.775 1300.6 530.914 1294.16 530.914C1287.7 530.914 1282.48 523.775 1282.48 514.951C1282.48 506.128 1287.73 498.989 1294.16 498.989C1300.63 498.989 1305.85 506.157 1305.85 514.951Z" fill="#609E51"/>
<path d="M1309.94 514.951C1309.94 523.774 1304.69 530.914 1298.25 530.914C1291.79 530.914 1286.57 523.774 1286.57 514.951C1286.57 506.128 1291.82 498.989 1298.25 498.989C1304.69 498.989 1309.94 506.157 1309.94 514.951Z" fill="#48823B"/>
<path opacity="0.2" d="M1258.09 515.117C1258.09 515.117 1224.62 608.674 1053.16 615.728H1227.22L1258.09 515.117Z" fill="#275B1E"/>
<path d="M935.577 631.017C942.043 631.017 947.284 623.857 947.284 615.025C947.284 606.194 942.043 599.034 935.577 599.034C929.11 599.034 923.869 606.194 923.869 615.025C923.869 623.857 929.11 631.017 935.577 631.017Z" fill="#609E51"/>
<path d="M939.673 631.017C946.139 631.017 951.381 623.857 951.381 615.025C951.381 606.194 946.139 599.034 939.673 599.034C933.207 599.034 927.965 606.194 927.965 615.025C927.965 623.857 933.207 631.017 939.673 631.017Z" fill="#48823B"/>
<path d="M1165.49 709.288H970.904L941.358 615.462L949.667 612.845L977.295 700.566H1165.49C1167.79 700.566 1169.91 699.49 1171.28 697.629C1172.64 695.768 1173.02 693.442 1172.32 691.232L1148.44 615.432L1156.75 612.816L1180.63 688.616C1182.17 693.5 1181.33 698.647 1178.28 702.775C1175.28 706.904 1170.61 709.288 1165.49 709.288Z" fill="#275B1E"/>
<path d="M1118.17 709.667H905.915L944.728 583.217H1156.98L1118.17 709.667Z" fill="#9CD88B"/>
<path d="M912.335 704.927L948.243 587.985H1150.56L1114.65 704.927H912.335Z" fill="#275B1E"/>
<path d="M967.069 574L922.619 718.912" stroke="#9CD88B" stroke-miterlimit="10"/>
<path d="M1002.05 574L957.598 718.912" stroke="#9CD88B" stroke-miterlimit="10"/>
<path d="M1037.03 574L992.547 718.912" stroke="#9CD88B" stroke-miterlimit="10"/>
<path d="M1072 574L1027.53 718.912" stroke="#9CD88B" stroke-miterlimit="10"/>
<path d="M1106.98 574L1062.5 718.912" stroke="#9CD88B" stroke-miterlimit="10"/>
<path d="M1141.96 574L1097.48 718.912" stroke="#9CD88B" stroke-miterlimit="10"/>
<path d="M926.396 621.713H1178.89" stroke="#9CD88B" stroke-miterlimit="10"/>
<path d="M909.139 661.488H1161.6" stroke="#9CD88B" stroke-miterlimit="10"/>
<path d="M1128.08 720.192L1166.89 593.713L1156.98 583.217L1118.17 709.667L1128.08 720.192Z" fill="#3B722F"/>
<path d="M1152.91 631.017C1159.38 631.017 1164.62 623.857 1164.62 615.025C1164.62 606.194 1159.38 599.034 1152.91 599.034C1146.45 599.034 1141.21 606.194 1141.21 615.025C1141.21 623.857 1146.45 631.017 1152.91 631.017Z" fill="#609E51"/>
<path d="M1156.98 631.017C1163.45 631.017 1168.69 623.857 1168.69 615.025C1168.69 606.194 1163.45 599.034 1156.98 599.034C1150.52 599.034 1145.27 606.194 1145.27 615.025C1145.27 623.857 1150.52 631.017 1156.98 631.017Z" fill="#48823B"/>
<path d="M1088.93 514.951C1088.93 523.775 1083.69 530.914 1077.25 530.914C1070.81 530.914 1065.56 523.775 1065.56 514.951C1065.56 506.128 1070.81 498.989 1077.25 498.989C1083.69 498.989 1088.93 506.157 1088.93 514.951Z" fill="#609E51"/>
<path d="M1092.99 514.951C1092.99 523.774 1087.75 530.914 1081.31 530.914C1074.84 530.914 1069.62 523.774 1069.62 514.951C1069.62 506.128 1074.87 498.989 1081.31 498.989C1087.77 498.989 1092.99 506.157 1092.99 514.951Z" fill="#48823B"/>
<path d="M1306.75 609.044H1112.51L1083.02 515.387L1091.31 512.775L1118.89 600.366H1306.75C1309.04 600.366 1311.16 599.292 1312.52 597.435C1313.88 595.577 1314.26 593.256 1313.57 591.05L1289.76 515.387L1298.05 512.775L1321.86 588.438C1323.4 593.314 1322.56 598.451 1319.51 602.572C1316.49 606.693 1311.85 609.044 1306.75 609.044Z" fill="#275B1E"/>
<path d="M1259.48 609.451H1047.61L1086.35 483.229H1298.22L1259.48 609.451Z" fill="#9CD88B"/>
<path d="M1054.05 604.691L1089.86 487.96H1291.82L1256 604.691H1054.05Z" fill="#275B1E"/>
<path d="M1108.68 474L1064.29 618.651" stroke="#9CD88B" stroke-miterlimit="10"/>
<path d="M1143.6 474L1099.2 618.651" stroke="#9CD88B" stroke-miterlimit="10"/>
<path d="M1178.51 474L1134.12 618.651" stroke="#9CD88B" stroke-miterlimit="10"/>
<path d="M1213.4 474L1169.03 618.651" stroke="#9CD88B" stroke-miterlimit="10"/>
<path d="M1248.32 474L1203.92 618.651" stroke="#9CD88B" stroke-miterlimit="10"/>
<path d="M1283.23 474L1238.83 618.651" stroke="#9CD88B" stroke-miterlimit="10"/>
<path d="M1068.08 521.627H1320.09" stroke="#9CD88B" stroke-miterlimit="10"/>
<path d="M1050.83 561.359H1302.86" stroke="#9CD88B" stroke-miterlimit="10"/>
<path d="M1047.61 609.451L1057.5 619.928H1269.37L1259.48 609.451H1047.61Z" fill="#275B1E"/>
<path d="M1269.37 619.928L1308.11 493.707L1298.22 483.229L1259.48 609.451L1269.37 619.928Z" fill="#3B722F"/>
<path d="M1305.85 514.951C1305.85 523.775 1300.6 530.914 1294.16 530.914C1287.7 530.914 1282.48 523.775 1282.48 514.951C1282.48 506.128 1287.73 498.989 1294.16 498.989C1300.63 498.989 1305.85 506.157 1305.85 514.951Z" fill="#609E51"/>
<path d="M1309.94 514.951C1309.94 523.774 1304.69 530.914 1298.25 530.914C1291.79 530.914 1286.57 523.774 1286.57 514.951C1286.57 506.128 1291.82 498.989 1298.25 498.989C1304.69 498.989 1309.94 506.157 1309.94 514.951Z" fill="#48823B"/>
<path d="M935.576 631.017C942.042 631.017 947.284 623.857 947.284 615.025C947.284 606.194 942.042 599.034 935.576 599.034C929.11 599.034 923.868 606.194 923.868 615.025C923.868 623.857 929.11 631.017 935.576 631.017Z" fill="#609E51"/>
<path d="M939.673 631.017C946.139 631.017 951.381 623.857 951.381 615.025C951.381 606.194 946.139 599.034 939.673 599.034C933.207 599.034 927.965 606.194 927.965 615.025C927.965 623.857 933.207 631.017 939.673 631.017Z" fill="#48823B"/>
<path d="M1165.49 709.288H970.904L941.358 615.462L949.667 612.845L977.295 700.566H1165.49C1167.79 700.566 1169.91 699.49 1171.28 697.629C1172.64 695.768 1173.02 693.442 1172.32 691.232L1148.44 615.432L1156.75 612.816L1180.63 688.616C1182.17 693.5 1181.33 698.647 1178.28 702.775C1175.28 706.904 1170.61 709.288 1165.49 709.288Z" fill="#275B1E"/>
<path d="M1118.17 709.667H905.914L944.728 583.217H1156.98L1118.17 709.667Z" fill="#9CD88B"/>
<path d="M912.335 704.927L948.243 587.985H1150.56L1114.65 704.927H912.335Z" fill="#275B1E"/>
<path d="M967.069 574L922.619 718.912" stroke="#9CD88B" stroke-miterlimit="10"/>
<path d="M1002.05 574L957.598 718.912" stroke="#9CD88B" stroke-miterlimit="10"/>
<path d="M1037.03 574L992.547 718.912" stroke="#9CD88B" stroke-miterlimit="10"/>
<path d="M1072 574L1027.53 718.912" stroke="#9CD88B" stroke-miterlimit="10"/>
<path d="M1106.98 574L1062.5 718.912" stroke="#9CD88B" stroke-miterlimit="10"/>
<path d="M1141.96 574L1097.48 718.912" stroke="#9CD88B" stroke-miterlimit="10"/>
<path d="M926.396 621.713H1178.89" stroke="#9CD88B" stroke-miterlimit="10"/>
<path d="M909.139 661.488H1161.6" stroke="#9CD88B" stroke-miterlimit="10"/>
<path d="M1128.07 720.192L1166.89 593.713L1156.98 583.217L1118.17 709.667L1128.07 720.192Z" fill="#3B722F"/>
<path d="M1152.91 631.017C1159.38 631.017 1164.62 623.857 1164.62 615.025C1164.62 606.194 1159.38 599.034 1152.91 599.034C1146.45 599.034 1141.21 606.194 1141.21 615.025C1141.21 623.857 1146.45 631.017 1152.91 631.017Z" fill="#609E51"/>
<path d="M1156.98 631.017C1163.45 631.017 1168.69 623.857 1168.69 615.025C1168.69 606.194 1163.45 599.034 1156.98 599.034C1150.52 599.034 1145.27 606.194 1145.27 615.025C1145.27 623.857 1150.52 631.017 1156.98 631.017Z" fill="#48823B"/>
<path opacity="0.2" d="M1116.4 606.448C1116.4 606.448 1082.93 700.03 911.463 707.059H1085.53L1116.4 606.448Z" fill="#275B1E"/>
<path d="M1254.77 677.966C1254.77 677.966 1268.76 674.489 1285.94 663.557" stroke="white" stroke-width="3" stroke-miterlimit="10"/>
<path d="M1045.04 154.499C1041.19 141.591 1029.24 132.185 1015.12 132.185C1000.97 132.185 989.047 141.591 985.198 154.499H1045.04Z" fill="white"/>
<path d="M1108.72 154.499C1109.77 150.897 1110.35 147.094 1110.35 143.142C1110.35 120.703 1092.18 102.517 1069.76 102.517C1047.34 102.517 1029.16 120.703 1029.16 143.142C1029.16 147.094 1029.74 150.897 1030.79 154.499H1108.72Z" fill="white"/>
<path d="M1155.49 154.499C1154.39 139.215 1141.69 127.157 1126.17 127.157C1110.62 127.157 1097.93 139.215 1096.85 154.499H1155.49V154.499Z" fill="white"/>
<path d="M296.441 635.384C296.441 635.384 425.389 616.948 411.242 637.01C397.07 657.047 406.268 660.8 453.534 652.895C500.799 644.965 529.618 621.826 536.042 602.764C542.465 583.678 523.294 565.317 471.63 553.66" stroke="white" stroke-miterlimit="10"/>
<path d="M312.22 483.951C312.22 492.775 306.971 499.914 300.533 499.914C294.095 499.914 288.847 492.775 288.847 483.951C288.847 475.128 294.095 467.989 300.533 467.989C306.971 467.989 312.22 475.157 312.22 483.951Z" fill="#609E51"/>
<path d="M316.28 483.951C316.28 492.774 311.031 499.914 304.593 499.914C298.126 499.914 292.906 492.774 292.906 483.951C292.906 475.128 298.155 467.989 304.593 467.989C311.06 467.989 316.28 475.157 316.28 483.951Z" fill="#48823B"/>
<path d="M530.036 578.044H335.797L306.304 484.387L314.598 481.775L342.177 569.366H530.036C532.327 569.366 534.444 568.292 535.807 566.435C537.17 564.577 537.547 562.256 536.851 560.05L513.042 484.387L521.336 481.775L545.145 557.438C546.682 562.314 545.841 567.451 542.796 571.572C539.78 575.693 535.14 578.044 530.036 578.044Z" fill="#275B1E"/>
<path d="M482.767 578.451H270.896L309.639 452.229H521.51L482.767 578.451Z" fill="#9CD88B"/>
<path d="M277.334 573.691L313.148 456.96H515.101L479.287 573.691H277.334Z" fill="#275B1E"/>
<path d="M331.969 443L287.571 587.651" stroke="#9CD88B" stroke-miterlimit="10"/>
<path d="M366.884 443L322.486 587.651" stroke="#9CD88B" stroke-miterlimit="10"/>
<path d="M401.8 443L357.401 587.651" stroke="#9CD88B" stroke-miterlimit="10"/>
<path d="M436.686 443L392.317 587.651" stroke="#9CD88B" stroke-miterlimit="10"/>
<path d="M471.602 443L427.203 587.651" stroke="#9CD88B" stroke-miterlimit="10"/>
<path d="M506.517 443L462.119 587.651" stroke="#9CD88B" stroke-miterlimit="10"/>
<path d="M291.369 490.627H543.376" stroke="#9CD88B" stroke-miterlimit="10"/>
<path d="M274.115 530.359H526.15" stroke="#9CD88B" stroke-miterlimit="10"/>
<path d="M270.896 578.451L280.785 588.928H492.655L482.766 578.451H270.896Z" fill="#275B1E"/>
<path d="M492.655 588.928L531.399 462.707L521.51 452.229L482.767 578.451L492.655 588.928Z" fill="#3B722F"/>
<path d="M529.137 483.951C529.137 492.775 523.888 499.914 517.45 499.914C510.983 499.914 505.763 492.775 505.763 483.951C505.763 475.128 511.012 467.989 517.45 467.989C523.917 467.989 529.137 475.157 529.137 483.951Z" fill="#609E51"/>
<path d="M533.226 483.951C533.226 492.774 527.977 499.914 521.539 499.914C515.072 499.914 509.852 492.774 509.852 483.951C509.852 475.128 515.101 467.989 521.539 467.989C527.977 467.989 533.226 475.157 533.226 483.951Z" fill="#48823B"/>
<path d="M158.862 600.017C165.328 600.017 170.57 592.857 170.57 584.025C170.57 575.194 165.328 568.034 158.862 568.034C152.396 568.034 147.154 575.194 147.154 584.025C147.154 592.857 152.396 600.017 158.862 600.017Z" fill="#609E51"/>
<path d="M162.958 600.017C169.424 600.017 174.666 592.857 174.666 584.025C174.666 575.194 169.424 568.034 162.958 568.034C156.492 568.034 151.25 575.194 151.25 584.025C151.25 592.857 156.492 600.017 162.958 600.017Z" fill="#48823B"/>
<path d="M388.779 678.288H194.189L164.643 584.462L172.952 581.845L200.58 669.566H388.779C391.074 669.566 393.195 668.49 394.561 666.629C395.926 664.768 396.304 662.442 395.606 660.232L371.726 584.432L380.035 581.816L403.915 657.616C405.455 662.5 404.612 667.647 401.562 671.775C398.57 675.904 393.892 678.288 388.779 678.288Z" fill="#275B1E"/>
<path d="M341.453 678.667H129.2L168.013 552.217H380.267L341.453 678.667Z" fill="#9CD88B"/>
<path d="M135.62 673.927L171.528 556.985H373.847L337.938 673.927H135.62Z" fill="#275B1E"/>
<path d="M190.354 543L145.905 687.912" stroke="#9CD88B" stroke-miterlimit="10"/>
<path d="M225.333 543L180.883 687.912" stroke="#9CD88B" stroke-miterlimit="10"/>
<path d="M260.311 543L215.833 687.912" stroke="#9CD88B" stroke-miterlimit="10"/>
<path d="M295.29 543L250.811 687.912" stroke="#9CD88B" stroke-miterlimit="10"/>
<path d="M330.268 543L285.79 687.912" stroke="#9CD88B" stroke-miterlimit="10"/>
<path d="M365.247 543L320.768 687.912" stroke="#9CD88B" stroke-miterlimit="10"/>
<path d="M149.681 590.713H402.172" stroke="#9CD88B" stroke-miterlimit="10"/>
<path d="M132.424 630.488H384.886" stroke="#9CD88B" stroke-miterlimit="10"/>
<path d="M129.2 678.667L139.106 689.192H351.36L341.453 678.667H129.2Z" fill="#275B1E"/>
<path d="M351.36 689.192L390.174 562.713L380.267 552.217L341.453 678.667L351.36 689.192Z" fill="#3B722F"/>
<path d="M376.2 600.017C382.666 600.017 387.908 592.857 387.908 584.025C387.908 575.194 382.666 568.034 376.2 568.034C369.733 568.034 364.492 575.194 364.492 584.025C364.492 592.857 369.733 600.017 376.2 600.017Z" fill="#609E51"/>
<path d="M380.267 600.017C386.733 600.017 391.975 592.857 391.975 584.025C391.975 575.194 386.733 568.034 380.267 568.034C373.801 568.034 368.559 575.194 368.559 584.025C368.559 592.857 373.801 600.017 380.267 600.017Z" fill="#48823B"/>
</svg>
